<svg id="Layer_1" data-name="Layer 1" xmlns="http://www.w3.org/2000/svg" viewBox="0 0 11.94 13.82"><defs><style>.cls-1{fill:#fff;}.cls-2{fill:#1d1d1b;}</style></defs><path class="cls-1" d="M6.08,12.85,6,1,1,5.52,6,1l4.93,4.55L6,1"/><path class="cls-2" d="M7.08,12.85,7,1A1,1,0,0,0,5.29.28l-5,4.53c-1,.87.46,2.28,1.41,1.41l5-4.52H5.29l4.92,4.55c.94.87,2.36-.54,1.41-1.42L6.7.28C5.76-.59,4.34.82,5.29,1.7l4.92,4.55c.94.87,2.36-.54,1.41-1.42L6.7.28a1,1,0,0,0-1.41,0l-5,4.53c-1,.87.46,2.28,1.41,1.41l5-4.52L5,1l.09,11.86a1,1,0,0,0,2,0Z"/></svg>